<svg width="39" height="48" viewBox="0 0 39 48" fill="none" xmlns="http://www.w3.org/2000/svg">
<path d="M38.5089 37.9491C38.7978 38.32 39 38.7636 39 39.2727V41.4545C39 45.4327 31.3444 48 19.5 48C7.65556 48 0 45.4327 0 41.4545V39.2727C0 38.7636 0.202222 38.32 0.491111 37.9491C4.49222 40.24 10.92 41.4545 19.5 41.4545C28.08 41.4545 34.5078 40.24 38.5089 37.9491ZM19.5 30.5455C10.92 30.5455 4.49222 29.3309 0.491111 27.04C0.202222 27.4109 0 27.8545 0 28.3636V30.5455C0 34.5236 7.65556 37.0909 19.5 37.0909C31.3444 37.0909 39 34.5236 39 30.5455V28.3636C39 27.8545 38.7978 27.4109 38.5089 27.04C34.5078 29.3309 28.08 30.5455 19.5 30.5455ZM19.5 0C7.65556 0 0 2.56727 0 6.54545V8.72727C0 12.7055 7.65556 15.2727 19.5 15.2727C31.3444 15.2727 39 12.7055 39 8.72727V6.54545C39 2.56727 31.3444 0 19.5 0ZM19.5 19.6364C10.92 19.6364 4.49222 18.4218 0.491111 16.1309C0.202222 16.5018 0 16.9455 0 17.4545V19.6364C0 23.6145 7.65556 26.1818 19.5 26.1818C31.3444 26.1818 39 23.6145 39 19.6364V17.4545C39 16.9455 38.7978 16.5018 38.5089 16.1309C34.5078 18.4218 28.08 19.6364 19.5 19.6364Z" fill="#595657"/>
</svg>
