<svg width="39" height="49" viewBox="0 0 39 49" fill="none" xmlns="http://www.w3.org/2000/svg">
<path d="M28.7368 9.1875V0L39 10.2083H29.7632C29.1953 10.2083 28.7368 9.75236 28.7368 9.1875ZM39 15.3125V46.9583C39 48.0881 38.0832 49 36.9474 49H2.05263C0.916842 49 0 48.0881 0 46.9583V2.04167C0 0.911945 0.916842 0 2.05263 0H23.6053C24.1732 0 24.6316 0.455972 24.6316 1.02083V12.25C24.6316 13.3797 25.5484 14.2917 26.6842 14.2917H37.9737C38.5416 14.2917 39 14.7476 39 15.3125ZM20.5263 37.7708C20.5263 37.206 20.0679 36.75 19.5 36.75H7.18421C6.61632 36.75 6.1579 37.206 6.1579 37.7708V39.8125C6.1579 40.3774 6.61632 40.8333 7.18421 40.8333H19.5C20.0679 40.8333 20.5263 40.3774 20.5263 39.8125V37.7708ZM32.8421 29.6042C32.8421 29.0393 32.3837 28.5833 31.8158 28.5833H7.18421C6.61632 28.5833 6.1579 29.0393 6.1579 29.6042V31.6458C6.1579 32.2107 6.61632 32.6667 7.18421 32.6667H31.8158C32.3837 32.6667 32.8421 32.2107 32.8421 31.6458V29.6042ZM32.8421 21.4375C32.8421 20.8726 32.3837 20.4167 31.8158 20.4167H7.18421C6.61632 20.4167 6.1579 20.8726 6.1579 21.4375V23.4792C6.1579 24.044 6.61632 24.5 7.18421 24.5H31.8158C32.3837 24.5 32.8421 24.044 32.8421 23.4792V21.4375Z" fill="#595657"/>
</svg>
