<svg width="51" height="44" viewBox="0 0 51 44" fill="none" xmlns="http://www.w3.org/2000/svg">
<path d="M51 23.6837C51 27.048 49.7554 30.2847 47.4907 32.7928C45.0621 35.483 41.4436 36.4364 39.0757 36.4364H37.3393V30.971H39.0757C40.4175 30.971 42.3421 30.3394 43.435 29.1309C44.7889 27.6309 45.5357 25.6937 45.5357 23.6837C45.5357 18.6615 41.4496 14.5746 36.4286 14.5746C36.1311 14.5746 34.5829 14.7689 33.6479 14.8903C33.2168 14.945 32.8161 14.6899 32.6764 14.2831L32.3061 13.2021C30.8914 9.07874 27.2971 5.95128 22.9682 5.52012C16.4414 4.87641 10.9286 10.0018 10.9286 16.3964C10.9286 17.2041 11.0318 18.0421 11.2321 18.8923L11.6207 20.5562C11.73 21.0238 11.4568 21.4975 10.9954 21.6372L9.35607 22.129C7.03071 22.8396 5.46429 24.9225 5.46429 27.3273C5.46429 28.1411 5.695 28.8333 6.21714 29.5681C6.76964 30.3455 8.22679 30.971 9.4775 30.971H13.6607V36.4364H9.4775C6.43571 36.4364 3.33321 34.9486 1.76071 32.726C0.595 31.0863 0 29.2645 0 27.3273C0 23.3254 2.14929 19.7607 5.53107 17.8538C5.48857 17.368 5.46429 16.8761 5.46429 16.3964C5.46429 7.35408 12.8168 0 21.8571 0C28.135 0 33.7936 3.58291 36.5318 9.1091C44.5218 9.16376 51 15.6798 51 23.6837ZM32.3486 32.7928H28.2321V22.7728C28.2321 22.2687 27.8254 21.8618 27.3214 21.8618H23.6786C23.1746 21.8618 22.7679 22.2687 22.7679 22.7728V32.7928H18.6514C17.9046 32.7928 17.4796 33.6369 17.9168 34.2381L24.7654 43.6265C25.1296 44.1245 25.8704 44.1245 26.2346 43.6265L33.0832 34.2381C33.5204 33.6369 33.0893 32.7928 32.3486 32.7928Z" fill="#595657"/>
</svg>
