<svg width="48" height="48" viewBox="0 0 48 48" fill="none" xmlns="http://www.w3.org/2000/svg">
<path d="M38.6447 25.3839L34.6502 31.3797C34.2968 31.9066 33.5232 31.9066 33.1698 31.3797L29.1753 25.3839C28.7818 24.7903 29.2086 24.0033 29.9155 24.0033H31.9628C31.9628 23.8433 32.0028 23.6899 31.9894 23.5298C31.8694 21.5623 31.0492 19.7416 29.6688 18.3543C29.5554 18.2409 29.4354 18.1276 29.3153 18.0208C27.7148 16.6003 25.6609 15.8933 23.5269 16.02C22.56 16.08 21.633 16.3268 20.7795 16.7136C20.3127 16.9271 19.7725 16.807 19.4858 16.3802L18.3454 14.6661C18.0187 14.1792 18.172 13.4923 18.6989 13.2322C20.1126 12.5319 21.6664 12.1184 23.2935 12.025C26.4945 11.8316 29.5754 12.8987 31.9694 15.0263C34.3701 17.1605 35.7906 20.0884 35.984 23.2897C35.9973 23.5298 35.9639 23.7632 35.9639 24.0033H37.9045C38.6114 24.0033 39.0382 24.7903 38.6447 25.3839ZM28.5151 31.6265C28.235 31.1997 27.6882 31.0863 27.2214 31.293C26.3611 31.6799 25.4408 31.9266 24.4739 31.9867C22.3399 32.1134 20.286 31.3997 18.6855 29.9858C17.0917 28.5786 16.1381 26.6111 16.0114 24.4769C16.0114 24.4769 16.0381 24.1634 16.0381 24.0033H18.0853C18.7922 24.0033 19.219 23.2097 18.8256 22.6228L14.831 16.6269C14.4776 16.1 13.704 16.1 13.3506 16.6269L9.35609 22.6228C8.96264 23.2163 9.38277 24.0033 10.0963 24.0033H12.0369C12.0369 24.2434 12.0035 24.4769 12.0169 24.717C12.1903 27.6715 13.424 30.3993 15.4979 32.4735C15.5446 32.5202 15.5913 32.5669 15.6379 32.6136C17.6852 34.5944 20.4127 35.8216 23.2535 35.9817C25.4008 36.1017 27.4614 35.6749 29.2953 34.7678C29.8221 34.5077 29.9688 33.8208 29.6487 33.3339L28.5151 31.6265ZM40.9788 40.9771C36.2974 45.659 30.1489 48 24.0004 48C17.8519 48 11.7035 45.659 7.02207 40.9771C-2.34069 31.6132 -2.34069 16.3802 7.02207 7.02293C16.3782 -2.34098 31.616 -2.34098 40.9721 7.02293C50.3415 16.3868 50.3415 31.6198 40.9788 40.9771ZM36.7375 11.2647C33.2231 7.75656 28.6151 6.0025 24.0004 6.0025C19.3857 6.0025 14.7777 7.75657 11.27 11.2714C4.24792 18.2943 4.24792 29.719 11.27 36.742C18.2921 43.7649 29.7154 43.7649 36.7375 36.742C43.7529 29.7124 43.7529 18.2876 36.7375 11.2647Z" fill="#595657"/>
</svg>
